<?xml version="1.0" standalone="no"?>
<!DOCTYPE svg PUBLIC "-//W3C//DTD SVG 20010904//EN"
 "http://www.w3.org/TR/2001/REC-SVG-20010904/DTD/svg10.dtd">
<svg version="1.0" xmlns="http://www.w3.org/2000/svg"
 width="600.000000pt" height="600.000000pt" viewBox="0 0 600.000000 600.000000"
 preserveAspectRatio="xMidYMid meet">
<metadata>
Created by potrace 1.14, written by Peter Selinger 2001-2017
</metadata>
<g transform="translate(0.000000,600.000000) scale(0.100000,-0.100000)"
fill="#000000" stroke="none">
<path d="M0 3000 l0 -3000 3000 0 3000 0 0 3000 0 3000 -3000 0 -3000 0 0
-3000z m2225 2559 c109 -15 126 -19 185 -35 202 -58 383 -182 496 -340 139
-195 201 -475 159 -716 -28 -160 -127 -412 -203 -514 -50 -67 -91 -56 -215 58
-21 20 -37 42 -34 50 2 7 0 20 -4 30 -5 10 -3 33 6 59 l16 43 -26 -24 c-22
-21 -27 -22 -38 -8 -6 8 -33 27 -59 42 -56 32 -78 68 -78 131 0 35 -4 45 -16
45 -11 0 -14 5 -9 18 34 82 50 249 33 352 -6 31 -5 40 2 29 5 -9 15 -58 22
-108 11 -81 15 -91 32 -89 14 2 25 22 42 73 28 84 29 105 8 176 -15 49 -83
165 -107 180 -5 4 -7 11 -3 17 3 5 -2 16 -11 23 -15 12 -16 12 -10 -3 8 -21
-6 -24 -22 -4 -6 8 -26 16 -44 19 -18 3 -41 7 -52 11 -117 34 -177 46 -224 45
-55 -2 -55 -2 19 -10 89 -9 157 -37 213 -87 44 -40 97 -109 97 -126 0 -6 -16
12 -35 41 -43 64 -105 114 -170 139 -63 24 -202 25 -260 2 -76 -30 -80 -29
-16 4 36 19 66 39 69 46 12 36 -169 -12 -222 -59 -38 -33 -71 -93 -60 -110 4
-7 1 -10 -7 -7 -8 3 -21 -10 -32 -31 -11 -20 -23 -38 -27 -41 -11 -8 -39 -92
-41 -125 -1 -16 -1 -55 1 -85 l3 -55 7 40 7 40 2 -47 c0 -27 -3 -48 -8 -48 -5
0 -11 -17 -14 -37 -3 -21 -10 -56 -16 -78 -6 -22 -11 -70 -11 -107 0 -53 -5
-74 -23 -100 -27 -40 -50 -43 -84 -12 -29 27 -40 25 -25 -2 22 -40 -29 -74
-58 -39 -7 8 -16 12 -21 9 -5 -3 -9 3 -9 12 0 14 -3 15 -12 6 -8 -8 -8 -15 3
-29 13 -16 12 -17 -3 -4 -10 7 -18 17 -18 22 0 4 -11 19 -25 33 -34 34 -32 18
4 -31 69 -95 138 -148 383 -294 180 -108 273 -180 317 -245 37 -56 41 -40 7
31 -32 69 -113 164 -185 216 -79 57 -93 99 -93 272 1 135 29 275 73 358 l23
44 7 -70 c22 -215 121 -347 545 -728 72 -64 149 -138 170 -163 64 -76 114
-154 114 -180 0 -13 5 -24 10 -24 12 0 13 25 1 48 -5 9 -17 38 -26 63 -35 100
-119 195 -427 482 -143 133 -148 141 -148 272 0 82 8 125 37 205 l17 45 12
-71 c35 -203 101 -292 520 -694 213 -205 298 -360 293 -534 l-2 -69 36 -19
c40 -20 67 -62 67 -103 0 -30 14 -32 55 -7 33 21 105 92 105 104 0 4 3 8 8 8
12 0 2 -139 -14 -205 -27 -106 -88 -219 -158 -290 -71 -72 -96 -84 -64 -28 17
27 22 53 22 107 1 93 -16 136 -55 136 -44 0 -54 -30 -27 -77 l22 -38 -34 34
c-19 19 -53 42 -75 52 -38 17 -161 38 -238 41 -35 1 -36 2 -24 22 8 12 22 42
32 68 15 41 20 46 36 37 26 -13 24 -19 -16 -73 -26 -33 -32 -46 -20 -46 24 0
136 58 174 90 l33 28 -19 59 c-19 56 -21 58 -64 67 -203 39 -355 88 -440 141
-46 30 -45 30 -189 -8 -126 -33 -128 -34 -150 -76 -28 -55 -99 -118 -142 -125
-50 -9 -185 -78 -228 -117 -21 -20 -27 -29 -15 -24 97 39 156 56 206 62 56 6
61 4 124 -37 36 -23 74 -55 85 -70 27 -37 25 -46 -2 -19 -77 73 -256 102 -373
59 -33 -12 -68 -22 -79 -23 -10 -1 -30 -17 -45 -37 -14 -19 -29 -38 -34 -41
-4 -3 -10 -16 -12 -29 -2 -13 -8 -26 -12 -29 -5 -3 -9 -26 -10 -50 -2 -24 -10
-52 -18 -61 -8 -9 -15 -23 -15 -31 0 -8 -4 -19 -9 -25 -4 -5 -19 -42 -31 -82
-13 -39 -27 -72 -31 -72 -4 0 -10 -18 -14 -40 -4 -23 -11 -37 -17 -34 -6 4 -6
-2 1 -14 8 -16 7 -35 -4 -79 -20 -76 -44 -413 -38 -528 2 -49 12 -110 21 -135
9 -25 15 -53 14 -63 -5 -27 37 -107 52 -101 8 3 20 -1 27 -9 8 -7 35 -26 61
-41 45 -26 48 -27 54 -9 14 49 31 68 65 76 32 7 36 12 35 35 -1 15 -10 43 -19
62 l-17 35 22 -30 c13 -16 54 -63 93 -103 139 -146 334 -202 530 -152 143 37
283 125 430 274 50 50 93 90 97 88 5 -1 7 1 6 6 -4 14 34 62 45 55 6 -4 7 -1
2 7 -5 9 2 22 21 38 16 13 22 21 14 16 -13 -7 -13 -5 -2 8 8 9 20 14 28 11 7
-3 16 1 19 9 12 31 147 -11 159 -50 20 -63 -191 -340 -399 -521 -125 -109
-313 -218 -407 -235 -21 -4 -38 -11 -38 -16 0 -6 -9 -10 -19 -10 -29 0 -52
-11 -45 -21 3 -5 2 -8 -3 -7 -4 1 -34 -1 -65 -5 -131 -16 -330 26 -473 101
-67 35 -171 129 -264 237 -38 45 -31 33 24 -40 172 -229 402 -329 746 -324
236 3 414 84 707 323 40 32 75 56 79 53 3 -4 0 -13 -7 -22 -7 -9 -10 -19 -6
-23 4 -4 14 1 21 12 8 10 18 15 23 12 5 -3 18 2 29 12 24 22 46 36 104 66 48
26 93 72 134 137 29 44 45 50 45 15 0 -31 20 -86 31 -86 20 0 6 -40 -44 -123
-178 -297 -411 -522 -672 -648 -122 -59 -286 -114 -318 -105 -9 2 -15 0 -11
-5 3 -5 -12 -9 -33 -8 -30 0 -34 2 -18 9 15 6 11 7 -17 7 -24 -1 -33 -4 -25
-10 7 -5 -5 -7 -31 -5 -35 3 -41 1 -37 -12 5 -12 4 -12 -6 -3 -9 9 -43 10
-126 6 -74 -4 -113 -3 -113 4 0 6 -19 13 -42 16 -24 3 -44 11 -46 16 -2 6 -17
11 -32 11 -16 0 -32 5 -35 10 -3 6 -21 10 -39 10 -21 0 -60 15 -102 40 -38 22
-64 40 -59 40 6 0 -12 13 -40 29 -27 16 -60 39 -72 50 -12 12 -25 21 -29 21
-3 0 -23 17 -44 38 -25 24 -61 45 -106 61 -38 13 -75 28 -81 34 -7 5 -25 6
-39 3 l-27 -7 24 -27 c13 -15 2 -7 -25 18 -112 104 -234 344 -290 570 -75 306
-49 682 70 998 33 88 124 260 140 266 20 8 17 1 -11 -30 -14 -15 -23 -29 -21
-31 5 -5 47 36 71 69 11 15 15 17 12 6 -4 -10 -2 -20 2 -23 5 -2 11 4 14 15 3
13 14 20 29 20 17 0 19 3 9 9 -11 7 -9 10 8 16 13 4 25 4 28 1 3 -3 18 3 33
14 16 11 34 20 40 20 15 0 94 42 98 53 2 4 8 7 14 7 6 0 23 11 40 25 16 14 35
25 42 25 7 0 51 35 97 78 112 104 204 150 223 110 5 -10 7 -10 12 0 8 18 24 4
17 -15 -3 -8 21 7 55 33 33 27 96 67 139 89 43 22 80 42 83 43 3 2 -6 13 -20
24 -22 18 -36 20 -145 16 -66 -3 -129 -8 -140 -12 -11 -4 -2 4 20 18 82 53
298 116 396 116 30 0 43 7 69 36 17 20 28 40 23 44 -13 13 -146 31 -273 36
-63 3 -148 14 -189 25 -89 23 -162 24 -200 4 -16 -8 -32 -11 -36 -7 -5 4 -5 1
-1 -5 5 -8 1 -13 -9 -13 -11 0 -15 -5 -12 -14 4 -10 1 -13 -9 -9 -8 3 -14 -1
-14 -11 0 -21 -98 -119 -111 -111 -5 4 -8 2 -7 -3 2 -5 -14 -27 -34 -50 -21
-23 -38 -39 -38 -36 0 3 -6 -1 -13 -8 -6 -7 -12 -38 -12 -68 0 -62 -38 -153
-116 -275 -61 -94 -66 -105 -32 -70 15 17 32 30 36 30 4 0 22 12 40 27 33 26
211 128 224 128 3 0 -35 -26 -86 -58 -108 -68 -251 -172 -251 -184 0 -4 -4 -8
-8 -8 -5 0 -1 33 10 73 44 178 32 272 -43 326 -59 43 -114 54 -236 48 -60 -3
-119 -9 -133 -13 -25 -7 -25 -7 -6 14 27 31 181 129 324 206 251 135 274 164
213 271 -28 48 -115 138 -175 181 l-28 20 88 -2 c132 -4 232 -14 261 -25 14
-5 27 -8 29 -6 2 1 -7 25 -20 52 -35 73 -49 149 -44 224 l5 67 -30 -4 c-42 -7
-99 -42 -93 -58 3 -8 0 -11 -10 -7 -10 4 -13 0 -8 -13 5 -18 5 -18 -9 -1 -22
26 -31 20 -12 -9 9 -14 14 -28 11 -31 -3 -4 -16 18 -30 48 -74 170 -93 382
-52 579 80 381 424 690 831 749 85 12 327 12 410 0z m-608 -831 c-3 -7 -5 -2
-5 12 0 14 2 19 5 13 2 -7 2 -19 0 -25z m2963 -922 c0 -3 -24 -18 -54 -36 -60
-34 -116 -91 -116 -118 0 -10 -13 -26 -30 -35 -32 -19 -39 -41 -16 -50 9 -4
13 -1 10 7 -3 7 4 20 15 30 15 14 24 15 39 7 20 -11 50 -4 247 57 36 11 95 16
205 16 133 1 167 -2 235 -22 112 -32 288 -120 381 -191 84 -63 166 -142 127
-122 -12 6 -39 11 -61 11 -21 0 -81 9 -133 20 -85 19 -104 20 -199 9 -115 -13
-154 -24 -145 -39 3 -5 -2 -10 -12 -10 -32 0 8 -20 42 -20 23 -1 15 -6 -39
-25 -38 -14 -101 -42 -141 -64 l-72 -39 7 32 c5 24 11 30 28 29 14 -2 27 8 40
30 25 40 67 156 60 163 -3 3 -24 6 -46 7 -23 0 -36 4 -30 8 6 4 -16 17 -48 30
-56 23 -73 24 -294 26 -129 1 -249 3 -266 5 -20 1 -71 -18 -148 -55 -141 -68
-194 -87 -245 -87 -32 0 -47 -9 -101 -59 -36 -34 -60 -63 -56 -70 4 -6 2 -11
-4 -11 -6 0 -10 -8 -8 -17 2 -13 -17 -32 -63 -65 -36 -25 -106 -84 -154 -130
-49 -46 -83 -74 -77 -62 6 11 18 26 26 33 9 8 13 18 9 24 -3 6 -1 7 5 3 7 -4
14 3 18 19 3 13 10 22 15 19 5 -3 9 -2 8 3 -3 20 3 34 24 54 l22 21 -22 -11
c-12 -6 -29 -21 -37 -33 -32 -45 -15 0 29 76 66 116 147 220 249 321 83 81
216 186 216 170 0 -3 -11 -21 -24 -38 -33 -44 -66 -112 -66 -136 0 -28 40 -37
76 -17 16 8 50 32 76 53 221 180 297 229 406 264 55 17 92 23 92 15z m153
-396 c94 -37 174 -144 121 -164 -8 -3 -12 -2 -9 3 5 10 -25 24 -60 27 -86 10
-171 26 -179 34 -24 24 -186 3 -280 -36 -33 -14 -79 -36 -101 -49 -22 -13 -44
-23 -48 -23 -5 -1 -17 -10 -26 -21 -10 -12 -23 -21 -29 -21 -11 0 -252 -242
-306 -308 -20 -24 -36 -49 -36 -55 0 -6 -3 -7 -7 -4 -3 4 -11 -3 -18 -16 -31
-57 -87 -144 -108 -167 -12 -14 -29 -38 -37 -54 -8 -16 -31 -46 -52 -68 -20
-22 -36 -45 -34 -51 1 -7 1 -8 -2 -4 -2 4 -11 0 -19 -10 -14 -17 -14 -17 -8 2
3 11 8 36 11 55 4 35 4 35 -32 -20 -20 -31 -32 -44 -28 -30 7 25 69 144 87
168 5 7 8 14 6 17 -3 2 -38 -46 -78 -106 -64 -94 -76 -108 -85 -92 -5 10 -28
36 -50 59 -23 22 -48 54 -57 71 -19 35 -18 36 97 173 137 162 338 340 384 340
5 0 10 4 10 9 0 5 8 11 18 15 9 3 31 14 47 25 140 88 324 182 362 184 11 1 19
5 17 8 -2 4 44 23 104 43 119 40 75 40 -53 0 -86 -27 -247 -105 -383 -185
-101 -60 -115 -63 -36 -7 128 90 315 183 449 223 50 15 95 31 101 36 42 34
258 33 347 -1z m-684 -37 c-21 -25 -90 -53 -131 -53 -58 0 -45 14 30 34 38 10
75 22 83 27 23 14 33 10 18 -8z m1258 1 c-3 -3 -12 -4 -19 -1 -8 3 -5 6 6 6
11 1 17 -2 13 -5z m-174 -41 c-7 -2 -19 -2 -25 0 -7 3 -2 5 12 5 14 0 19 -2
13 -5z m44 -9 c-3 -3 -12 -4 -19 -1 -8 3 -5 6 6 6 11 1 17 -2 13 -5z m-3832
-54 c22 -5 82 -14 133 -21 103 -13 122 -29 35 -29 -32 0 -86 -5 -121 -10 -78
-13 -135 0 -159 36 -27 41 4 48 112 24z m-439 -92 c4 -7 4 -10 -1 -6 -4 4 -25
-6 -46 -23 -22 -17 -39 -27 -39 -22 0 6 67 61 77 63 1 0 5 -6 9 -12z m9 -106
c-5 -71 -32 -196 -34 -152 0 14 6 50 14 80 17 62 19 104 3 50 -6 -19 -13 -29
-15 -23 -3 7 0 28 7 47 6 19 8 47 4 62 -7 26 -6 28 9 16 12 -11 15 -28 12 -80z
m1212 62 c-3 -3 -12 -4 -19 -1 -8 3 -5 6 6 6 11 1 17 -2 13 -5z m-87 -19 c-24
-8 -46 -12 -49 -10 -2 3 2 7 10 9 8 2 21 7 29 9 8 3 24 5 35 6 11 0 0 -7 -25
-14z m-1230 0 c0 -2 -24 -28 -53 -58 -29 -29 -52 -58 -50 -64 2 -5 -16 -25
-40 -44 -30 -22 -44 -41 -43 -55 1 -15 6 -19 19 -16 28 7 20 -28 -25 -113 -6
-11 10 -1 34 23 24 23 47 42 51 42 4 0 1 -15 -6 -32 -15 -37 -31 -112 -46
-208 -5 -36 -17 -87 -26 -115 -9 -27 -21 -68 -27 -90 -6 -22 -14 -49 -19 -60
-9 -23 -23 -85 -44 -195 -20 -105 -20 -266 0 -274 8 -3 14 -9 14 -13 -1 -4 1
-15 4 -23 4 -8 15 -58 26 -110 11 -55 20 -82 21 -65 2 21 6 10 16 -35 7 -36
13 -74 13 -85 l0 -20 -9 20 c-18 42 -10 -14 15 -98 14 -48 22 -94 19 -104 -5
-15 -4 -16 5 -3 8 12 11 8 11 -18 0 -22 4 -31 11 -26 8 4 9 -1 5 -17 -3 -13
-3 -17 1 -9 4 11 11 3 24 -25 12 -28 18 -34 18 -19 1 11 -4 25 -11 32 -6 6 -9
14 -6 18 11 10 38 -54 32 -73 -4 -13 -3 -15 4 -5 7 11 14 6 31 -22 l22 -35
-20 -20 c-17 -17 -20 -29 -15 -68 6 -56 20 -129 29 -158 10 -31 -111 102 -159
175 -61 91 -112 196 -146 298 -89 265 -86 623 6 927 16 50 28 110 28 135 1 44
0 45 -32 48 -27 3 -39 -4 -81 -47 l-48 -50 14 77 c38 203 169 431 352 609 74
72 81 78 81 68z m1245 -30 c33 -4 83 -11 112 -16 l51 -10 -16 -39 c-9 -21 -21
-36 -26 -33 -5 4 -6 1 -2 -5 4 -6 1 -30 -5 -52 -8 -27 -15 -36 -20 -28 -11 17
1 -92 13 -114 13 -27 57 -34 91 -14 25 14 28 14 23 1 -3 -8 -11 -54 -18 -100
-12 -83 -11 -86 10 -108 18 -18 34 -22 82 -22 33 0 60 -4 60 -9 0 -13 -45 -70
-83 -106 -60 -57 -258 -141 -332 -140 -11 0 8 14 44 32 39 19 89 55 125 91 34
33 67 61 74 63 25 5 23 12 -9 34 -17 13 -38 38 -45 56 -16 39 -18 100 -4 109
15 10 12 28 -4 22 -18 -7 -32 10 -39 48 -3 17 -13 55 -21 85 -18 63 -21 123
-6 151 12 22 7 24 -19 7 -15 -9 -30 -8 -73 6 -79 25 -96 38 -90 76 4 29 7 31
36 26 17 -3 58 -8 91 -11z m325 -175 c38 -74 90 -111 200 -140 25 -6 62 -17
83 -23 31 -8 44 -7 73 6 34 17 37 17 65 -4 36 -26 46 -44 60 -111 18 -89 40
-148 59 -158 10 -6 50 -10 87 -10 99 0 314 -74 297 -102 -4 -6 -3 -8 3 -5 6 4
35 -13 65 -38 30 -25 58 -45 62 -45 9 0 89 -65 339 -273 98 -81 206 -163 240
-182 71 -40 71 -42 -1 -16 -63 23 -69 18 -9 -9 27 -13 63 -19 102 -19 45 1 54
3 35 9 -24 8 -24 8 5 9 46 1 139 64 174 117 34 52 56 140 46 190 -3 19 -2 34
3 34 21 0 115 -115 142 -172 77 -166 54 -376 -55 -493 -34 -36 -35 -40 -19
-52 24 -18 134 -16 213 2 138 33 254 113 303 208 40 80 32 259 -16 329 -34 51
-110 109 -162 124 l-49 14 91 -5 c184 -11 345 -79 469 -200 372 -363 153 -947
-390 -1042 -57 -10 -117 -13 -165 -10 l-75 6 25 -19 c102 -77 310 -131 430
-111 30 5 56 8 57 7 4 -4 -56 -64 -93 -93 -51 -40 -159 -96 -239 -123 -90 -31
-223 -52 -259 -41 -17 5 -66 12 -110 16 -84 6 -212 43 -288 81 -71 36 -161
116 -205 183 -40 58 -109 209 -100 217 2 3 13 -19 24 -48 14 -36 26 -53 37
-52 9 1 16 -6 16 -16 0 -10 6 -20 14 -23 10 -4 12 0 9 13 -4 16 10 11 83 -25
97 -49 109 -53 100 -29 -4 10 -2 13 6 8 7 -5 9 -2 6 7 -3 8 3 26 14 39 15 18
29 24 58 24 32 0 49 -9 95 -50 31 -27 66 -56 78 -64 l22 -15 -22 28 c-32 41
-63 131 -70 201 -5 54 -3 63 16 80 31 28 26 33 -31 28 -44 -3 -58 0 -81 18
-27 22 -127 205 -127 234 0 30 -25 68 -54 83 -57 30 -171 64 -232 70 l-61 6
-42 -68 c-63 -99 -86 -146 -124 -248 -46 -125 -51 -154 -32 -229 16 -66 43
-128 56 -128 4 0 21 -24 38 -54 38 -68 53 -78 34 -23 -17 48 -14 204 4 215 6
4 28 36 49 72 27 47 38 77 38 110 1 41 4 45 27 48 36 4 68 -32 51 -58 -7 -11
-13 -39 -13 -62 l-2 -43 -6 42 c-9 56 -16 61 -41 32 -95 -109 -107 -332 -24
-454 l22 -33 -46 15 c-61 21 -121 62 -166 115 -34 39 -47 66 -27 53 12 -7 -2
43 -20 76 -18 30 -17 244 1 309 7 29 10 88 8 166 -6 142 -29 206 -101 278 -44
43 -104 69 -93 39 5 -12 3 -12 -12 -1 -57 41 -272 232 -272 241 0 6 12 0 27
-14 20 -18 24 -19 13 -4 -21 28 -33 36 -48 30 -7 -3 -11 -1 -8 4 8 12 -41 54
-53 47 -7 -4 -8 -1 -5 8 4 10 1 17 -7 18 -8 0 -18 2 -24 2 -16 2 -51 25 -39
26 5 0 16 -6 24 -12 12 -11 12 -10 1 4 -7 9 -22 18 -34 20 -12 2 -21 9 -20 15
2 7 -3 10 -11 7 -8 -3 -20 3 -27 13 -8 11 -22 22 -33 26 -11 5 -16 13 -12 23
4 12 2 15 -9 10 -10 -4 -15 1 -15 15 0 11 -4 18 -9 15 -8 -6 -17 21 -47 144
-10 41 -26 83 -36 93 -10 10 -18 26 -18 37 0 13 -5 18 -15 14 -9 -4 -16 0 -16
7 -4 43 -8 58 -23 94 -18 42 -30 55 -141 143 -85 68 -109 94 -135 148 -25 50
-27 124 -4 124 2 0 13 -18 24 -40z m-277 -238 c5 -43 -8 -86 -31 -104 -15 -12
-15 -10 1 14 19 31 22 61 7 88 -5 10 -7 33 -3 51 6 30 7 31 14 11 5 -12 10
-39 12 -60z m73 -126 c8 -14 14 -35 12 -48 -2 -19 -9 -23 -43 -24 -22 -1 -60
-7 -85 -13 -25 -6 -63 -11 -85 -11 l-40 0 58 29 c31 16 74 43 94 60 45 37 67
39 89 7z m-1497 -185 c-7 -28 -15 -49 -17 -46 -2 2 1 27 8 55 7 28 14 49 17
46 3 -3 -1 -28 -8 -55z m-22 -93 c-3 -7 -5 -2 -5 12 0 14 2 19 5 13 2 -7 2
-19 0 -25z m-20 -790 c-3 -8 -6 -5 -6 6 -1 11 2 17 5 13 3 -3 4 -12 1 -19z
m73 -203 c0 -5 -5 -3 -10 5 -5 8 -10 20 -10 25 0 6 5 3 10 -5 5 -8 10 -19 10
-25z m2903 -212 c-3 -18 -9 -33 -14 -33 -11 0 -11 0 2 39 14 39 18 37 12 -6z
m-2593 -127 c-7 -7 -13 -7 -20 0 -6 6 -3 10 10 10 13 0 16 -4 10 -10z m573
-313 c-7 -2 -21 -2 -30 0 -10 3 -4 5 12 5 17 0 24 -2 18 -5z"/>
<path d="M1573 5088 c-52 -56 -108 -168 -83 -168 6 0 13 8 16 18 11 36 49 108
77 145 35 46 31 48 -10 5z"/>
<path d="M1552 5000 c-14 -23 -15 -30 -4 -30 4 0 12 11 19 25 13 30 3 33 -15
5z"/>
<path d="M2080 3910 c47 -52 103 -116 124 -142 21 -27 45 -48 52 -48 19 0 18
5 -8 33 -13 13 -56 60 -97 105 -40 44 -92 96 -115 114 -28 23 -15 3 44 -62z"/>
<path d="M1875 3738 c11 -6 32 -20 48 -30 15 -11 27 -15 27 -9 0 12 -62 51
-81 51 -8 0 -6 -5 6 -12z"/>
<path d="M2380 3610 c-7 -4 -10 -13 -6 -19 4 -6 11 -37 16 -68 21 -127 100
-233 186 -249 38 -7 165 32 171 53 3 7 -20 28 -51 48 -30 19 -97 77 -148 128
-90 91 -142 123 -168 107z"/>
<path d="M1340 3525 c-7 -9 -8 -15 -2 -15 5 0 12 7 16 15 3 8 4 15 2 15 -2 0
-9 -7 -16 -15z"/>
<path d="M2055 3414 c-11 -9 -31 -12 -47 -9 -94 18 -96 17 -49 -5 51 -24 109
-27 117 -5 10 25 0 34 -21 19z"/>
<path d="M785 3351 c-14 -6 -6 -9 35 -14 30 -4 58 -3 63 2 4 4 2 8 -5 9 -7 1
-26 4 -43 7 -16 2 -39 1 -50 -4z"/>
<path d="M3120 2948 c-54 -23 -70 -32 -70 -40 0 -12 28 -10 32 3 5 16 76 29
82 15 2 -6 5 -3 5 6 1 9 7 19 14 21 6 3 1 5 -13 6 -14 0 -36 -5 -50 -11z"/>
<path d="M3146 2883 c-6 -14 -5 -15 5 -6 7 7 10 15 7 18 -3 3 -9 -2 -12 -12z"/>
<path d="M1190 1485 c0 -5 5 -17 10 -25 5 -8 10 -10 10 -5 0 6 -5 17 -10 25
-5 8 -10 11 -10 5z"/>
<path d="M1225 1410 c9 -16 18 -30 21 -30 2 0 -2 14 -11 30 -9 17 -18 30 -21
30 -2 0 2 -13 11 -30z"/>
<path d="M1309 1245 c9 -20 80 -89 104 -101 7 -3 -4 9 -23 27 -19 18 -48 46
-63 63 -17 18 -24 23 -18 11z"/>
<path d="M1430 1136 c0 -2 8 -10 18 -17 15 -13 16 -12 3 4 -13 16 -21 21 -21
13z"/>
<path d="M940 976 c0 -2 8 -10 18 -17 15 -13 16 -12 3 4 -13 16 -21 21 -21 13z"/>
<path d="M4909 3534 c18 -8 47 -17 65 -20 l31 -4 -35 13 c-19 8 -48 17 -65 20
-30 6 -30 6 4 -9z"/>
<path d="M686 2983 c-6 -14 -5 -15 5 -6 7 7 10 15 7 18 -3 3 -9 -2 -12 -12z"/>
<path d="M2225 2579 c-4 -6 -5 -12 -2 -15 2 -3 7 2 10 11 7 17 1 20 -8 4z"/>
<path d="M2286 2511 c-14 -5 -16 -10 -7 -15 15 -10 78 1 86 14 7 12 -51 12
-79 1z"/>
<path d="M2775 2620 c-9 -15 4 -85 20 -107 13 -16 14 -12 15 38 0 37 -5 61
-14 68 -10 9 -16 9 -21 1z"/>
<path d="M3105 2420 c-36 -6 -33 -7 25 -9 36 -1 76 -4 90 -6 21 -5 22 -4 5 3
-33 15 -77 19 -120 12z"/>
<path d="M3065 2320 c-12 -19 14 -38 116 -83 164 -75 393 -220 625 -398 139
-107 197 -133 294 -134 90 0 160 30 229 97 59 58 104 158 71 158 -5 0 -10 6
-10 14 0 8 -5 18 -10 21 -6 4 -9 3 -8 -2 4 -13 -34 -93 -42 -88 -4 2 -13 -6
-20 -19 -7 -13 -22 -29 -34 -34 -16 -8 -17 -11 -4 -11 9 -1 26 11 37 25 12 15
21 22 21 17 0 -17 -62 -73 -105 -96 -54 -29 -163 -28 -231 2 -62 28 -116 69
-108 83 4 7 2 8 -5 4 -6 -4 -30 9 -56 29 -93 77 -492 349 -571 389 -59 31
-176 47 -189 26z"/>
<path d="M4376 2110 c5 -8 9 -18 9 -22 0 -3 3 -9 7 -13 3 -4 5 0 4 9 -1 9 -8
22 -16 29 -10 10 -11 9 -4 -3z"/>
<path d="M4407 2030 c3 -11 9 -22 13 -25 5 -3 6 4 3 15 -3 11 -9 22 -13 25 -5
3 -6 -4 -3 -15z"/>
<path d="M4185 1790 c-3 -6 1 -7 9 -4 18 7 21 14 7 14 -6 0 -13 -4 -16 -10z"/>
<path d="M5400 1249 c0 -5 5 -7 10 -4 6 3 10 8 10 11 0 2 -4 4 -10 4 -5 0 -10
-5 -10 -11z"/>
<path d="M4805 1175 c-5 -2 -64 -11 -130 -19 -66 -9 -145 -25 -175 -36 -30
-11 -44 -18 -30 -15 14 3 77 10 140 15 117 10 215 31 233 49 8 8 5 11 -8 10
-11 0 -24 -2 -30 -4z"/>
<path d="M4730 1113 c-92 -14 -96 -15 -74 -23 24 -9 91 3 107 19 6 6 7 10 2
10 -6 -1 -21 -3 -35 -6z"/>
</g>
</svg>
